<mxfile host="app.diagrams.net" modified="2023-11-23T13:58:19.813Z" agent="Mozilla/5.0 (iPhone; CPU iPhone OS 15_7_2 like Mac OS X) AppleWebKit/605.1.15 (KHTML, like Gecko) Version/15.6.4 Mobile/15E148 Safari/604.1" version="22.1.3" etag="yWCI56z7l1ZcCgIXOmRS" type="github">
  <diagram name="第 1 页" id="YeK6gRNvZPkMsStAg_PM">
    <mxGraphModel>
      <root>
        <mxCell id="0" />
        <mxCell id="1" parent="0" />
      </root>
    </mxGraphModel>
  </diagram>
</mxfile>
